<svg width="24" height="24" viewBox="0 0 24 24" fill="none" xmlns="http://www.w3.org/2000/svg">
<path d="M1.71428 8.35717C1.71428 7.50469 2.05293 6.68712 2.65572 6.08433C3.25852 5.48153 4.07608 5.14288 4.92857 5.14288H12.2143C13.0668 5.14288 13.8843 5.48153 14.4871 6.08433C15.0899 6.68712 15.4286 7.50469 15.4286 8.35717V15.6429C15.4286 16.4954 15.0899 17.3129 14.4871 17.9157C13.8843 18.5185 13.0668 18.8572 12.2143 18.8572H4.92857C4.07608 18.8572 3.25852 18.5185 2.65572 17.9157C2.05293 17.3129 1.71428 16.4954 1.71428 15.6429V8.35717ZM19.9303 17.7283L16.2857 15.2117V8.78574L19.9303 6.26917C20.9246 5.58174 22.2823 6.29488 22.2823 7.50345V16.4949C22.2823 17.7035 20.9254 18.4149 19.9303 17.7283Z" fill="#065CBD"/>
</svg>
